<svg viewBox="0 0 24 24" fill="currentColor" xmlns="http://www.w3.org/2000/svg">
  <path d="M12 .3a12 12 0 0 0-3.8 23.4c.6.1.8-.3.8-.6v-2.2c-3.3.7-4-1.5-4-1.5-.5-1.4-1.3-1.8-1.3-1.8-1.1-.8.1-.8.1-.8 1.2.1 1.9 1.3 1.9 1.3 1.1 1.8 2.8 1.3 3.5 1 .1-.8.4-1.3.8-1.6-2.7-.3-5.6-1.4-5.6-6a4.7 4.7 0 0 1 1.3-3.3 4.3 4.3 0 0 1 .1-3.3s1-.3 3.4 1.3a11.8 11.8 0 0 1 6.1 0c2.3-1.6 3.4-1.3 3.4-1.3a4.3 4.3 0 0 1 .1 3.3 4.7 4.7 0 0 1 1.3 3.3c0 4.7-2.9 5.7-5.6 6 .4.3.8 1 .8 2.1v3.1c0 .3.2.7.8.6A12 12 0 0 0 12 .3z" />
</svg>
